<?xml version="1.0" encoding="UTF-8"?>
<!--
Additional SVG icons
-->
<svg xmlns="http://www.w3.org/2000/svg" style="display: none;">
  <symbol id="oeg-icon-video" viewBox="0 0 576 512">
    <path fill="currentColor" d="M543.9 96c-6.2 0-12.5 1.8-18.2 5.7L416 170.1v-58.3c0-26.4-23.2-47.8-51.8-47.8H51.8C23.2 64 0 85.4 0 111.8v288.4C0 426.6 23.2 448 51.8 448h312.4c28.6 0 51.8-21.4 51.8-47.8v-58.3l109.7 68.3c5.7 4 12.1 5.7 18.2 5.7 16.6 0 32.1-13 32.1-31.5V127.5C576 109 560.5 96 543.9 96zM368 200v198.9c-.6.4-1.8 1.1-3.8 1.1H51.8c-2 0-3.2-.6-3.8-1.1V113.1c.6-.4 1.8-1.1 3.8-1.1h312.4c2 0 3.2.6 3.8 1.1V200zm160 155.2l-112-69.8v-58.7l112-69.8v198.3z"/>
  </symbol>
  <symbol id="oeg-icon-bookmark" viewBox="0 0 384 512">
    <path fill="currentColor" d="M336 0H48C21.49 0 0 21.49 0 48v464l192-112 192 112V48c0-26.51-21.49-48-48-48zm16 456.287l-160-93.333-160 93.333V48c0-8.822 7.178-16 16-16h288c8.822 0 16 7.178 16 16v408.287z" />
  </symbol>
  <symbol id="oeg-icon-circle-check" viewBox="0 0 512 512">
    <path fill="currentColor" d="M256 8C119.033 8 8 119.033 8 256s111.033 248 248 248 248-111.033 248-248S392.967 8 256 8zm0 464c-118.664 0-216-96.055-216-216 0-118.663 96.055-216 216-216 118.664 0 216 96.055 216 216 0 118.663-96.055 216-216 216zm141.63-274.961L217.15 376.071c-4.705 4.667-12.303 4.637-16.97-.068l-85.878-86.572c-4.667-4.705-4.637-12.303.068-16.97l8.52-8.451c4.705-4.667 12.303-4.637 16.97.068l68.976 69.533 163.441-162.13c4.705-4.667 12.303-4.637 16.97.068l8.451 8.52c4.668 4.705 4.637 12.303-.068 16.97z" />
  </symbol>
  <symbol id="oeg-icon-circle" viewBox="0 0 512 512">
    <path fill="currentColor" d="M256 8C119 8 8 119 8 256s111 248 248 248 248-111 248-248S393 8 256 8zm216 248c0 118.7-96.1 216-216 216-118.7 0-216-96.1-216-216 0-118.7 96.1-216 216-216 118.7 0 216 96.1 216 216z" />
  </symbol>
</svg>
